<?xml version="1.0" encoding="UTF-8"?>
<svg version="1.1" xmlns="http://www.w3.org/2000/svg" width="500" height="500">
<path d="M0 0 C4.69932793 0.1273206 8.15905681 0.23661113 11.80102539 3.50756836 C12.96798442 4.84357286 14.11224588 6.1995955 15.23852539 7.57006836 C16.98794615 9.1975598 18.7598158 10.80118618 20.55102539 12.38256836 C21.3721582 13.13151367 22.19329102 13.88045898 23.03930664 14.65209961 C25.28675058 16.69526328 25.28675058 16.69526328 28.23852539 18.57006836 C28.23852539 19.23006836 28.23852539 19.89006836 28.23852539 20.57006836 C28.82118164 20.83819336 29.40383789 21.10631836 30.00415039 21.38256836 C32.2663914 22.58487826 34.04428857 23.90832749 35.98852539 25.57006836 C36.90891602 26.34350586 36.90891602 26.34350586 37.84790039 27.13256836 C39.23852539 28.57006836 39.23852539 28.57006836 39.23852539 30.57006836 C39.81086914 30.81370117 40.38321289 31.05733398 40.97290039 31.30834961 C43.64286077 32.79524134 45.37681546 34.55090744 47.48852539 36.75756836 C53.35935445 42.75371889 59.23351945 47.93953984 66.23852539 52.57006836 C66.24661224 51.94810577 66.2546991 51.32614319 66.26303101 50.68533325 C66.34889046 44.2292182 66.44838515 37.77341682 66.5559082 31.31762695 C66.59426186 28.90622208 66.62910329 26.49475874 66.66040039 24.08325195 C66.70591242 20.62291523 66.76392943 17.16298328 66.82446289 13.70288086 C66.8360141 12.61951447 66.84756531 11.53614807 66.85946655 10.41995239 C66.87933624 9.41906586 66.89920593 8.41817932 66.91967773 7.38696289 C66.9330014 6.50315948 66.94632507 5.61935608 66.96005249 4.70877075 C67.23852539 2.57006836 67.23852539 2.57006836 69.23852539 0.57006836 C71.26977539 0.32714844 71.26977539 0.32714844 73.73852539 0.33959961 C75.06883789 0.3425 75.06883789 0.3425 76.42602539 0.34545898 C77.81821289 0.36382812 77.81821289 0.36382812 79.23852539 0.38256836 C80.63071289 0.38353516 80.63071289 0.38353516 82.05102539 0.38452148 C88.95778165 0.42969649 88.95778165 0.42969649 91.23852539 1.57006836 C92.16917309 20.3191544 92.37131907 39.06759753 92.41577148 57.83718872 C92.42261703 60.45444839 92.43288051 63.07170131 92.4465332 65.68893433 C92.46441344 69.41369988 92.46869252 73.13823358 92.46899414 76.86303711 C92.47613937 77.99932556 92.48328461 79.13561401 92.49064636 80.30633545 C92.48609184 81.87390594 92.48609184 81.87390594 92.48144531 83.47314453 C92.48287033 84.38859543 92.48429535 85.30404633 92.48576355 86.24723816 C92.23852539 88.57006836 92.23852539 88.57006836 90.23852539 91.57006836 C83.33181327 93.16914343 72.85854124 93.57932413 66.28833008 90.72192383 C63.00857505 88.52970896 60.67545889 85.62414735 58.23852539 82.57006836 C57.49860352 82.01963867 56.75868164 81.46920898 55.99633789 80.90209961 C55.41625977 80.4625293 54.83618164 80.02295898 54.23852539 79.57006836 C54.23852539 78.91006836 54.23852539 78.25006836 54.23852539 77.57006836 C53.67004883 77.31999023 53.10157227 77.06991211 52.51586914 76.81225586 C49.91026027 75.39101466 47.98557782 73.70167631 45.80102539 71.69506836 C43.40169125 69.51564046 41.02626155 67.40122212 38.48852539 65.38256836 C35.03571165 62.60113507 32.03424121 59.40999061 28.98852539 56.19506836 C25.9961303 53.33869122 22.83154564 50.88598488 19.51977539 48.41381836 C16.90369306 46.29945045 14.60185101 43.96080621 12.23852539 41.57006836 C12.23043854 42.16697479 12.22235168 42.76388123 12.21401978 43.37887573 C12.12815342 49.57547806 12.02865846 55.77175384 11.92114258 61.96801758 C11.88279138 64.28241504 11.8479495 66.59687337 11.81665039 68.91137695 C11.77113299 72.232725 11.71311697 75.55365177 11.65258789 78.87475586 C11.63526108 80.43418411 11.63526108 80.43418411 11.61758423 82.02511597 C11.59771454 82.985961 11.57784485 83.94680603 11.55737305 84.93676758 C11.54404938 85.7850412 11.53072571 86.63331482 11.51699829 87.5072937 C11.23852539 89.57006836 11.23852539 89.57006836 9.23852539 91.57006836 C7.11547852 91.82885742 7.11547852 91.82885742 4.51977539 91.83569336 C3.5877832 91.83827148 2.65579102 91.84084961 1.69555664 91.84350586 C0.71973633 91.83577148 -0.25608398 91.82803711 -1.26147461 91.82006836 C-2.72520508 91.83166992 -2.72520508 91.83166992 -4.21850586 91.84350586 C-5.15049805 91.84092773 -6.08249023 91.83834961 -7.04272461 91.83569336 C-7.89930664 91.8334375 -8.75588867 91.83118164 -9.63842773 91.82885742 C-11.76147461 91.57006836 -11.76147461 91.57006836 -13.76147461 89.57006836 C-13.96006908 86.80979132 -14.03418263 84.14983567 -14.02026367 81.38842773 C-14.02376831 80.54278763 -14.02727295 79.69714752 -14.03088379 78.82588196 C-14.03970906 76.02177803 -14.03384917 73.217925 -14.02709961 70.41381836 C-14.02844603 68.47090608 -14.03038637 66.52799413 -14.03289795 64.58508301 C-14.03585029 60.50957029 -14.03154803 56.43414513 -14.0222168 52.35864258 C-14.01082221 47.12598451 -14.01738109 41.89353158 -14.02936172 36.66088104 C-14.03657735 32.64783168 -14.03429377 28.63483121 -14.02910614 24.6217804 C-14.02776882 22.6920011 -14.02942023 20.76221741 -14.03406525 18.83244324 C-14.03912561 16.13874494 -14.03142723 13.44538219 -14.02026367 10.75170898 C-14.02431213 9.94852737 -14.0283606 9.14534576 -14.03253174 8.31782532 C-13.95708224 -1.47370044 -8.03569939 0.02306757 0 0 Z " fill="#171D27" transform="translate(85.761474609375,139.429931640625)"/>
<path d="M0 0 C1.65902344 -0.00386719 1.65902344 -0.00386719 3.3515625 -0.0078125 C6.375 0.125 6.375 0.125 10.375 1.125 C10.375 13.665 10.375 26.205 10.375 39.125 C12.025 37.475 13.675 35.825 15.375 34.125 C18.1875 32.8125 18.1875 32.8125 20.375 32.125 C20.375 31.465 20.375 30.805 20.375 30.125 C32.01174053 24.47737198 43.3378635 23.96188832 55.59375 27.82421875 C59.44337777 29.18164347 63.04130848 30.72890922 66.375 33.125 C66.375 33.785 66.375 34.445 66.375 35.125 C66.931875 35.310625 67.48875 35.49625 68.0625 35.6875 C73.40423573 39.00803843 76.09372304 44.77158374 77.80078125 50.6328125 C80.40526888 61.93664315 79.38286903 73.26432831 74.0625 83.69921875 C72.75 85.625 72.75 85.625 70.375 88.125 C69.715 88.125 69.055 88.125 68.375 88.125 C68.375 88.785 68.375 89.445 68.375 90.125 C67.715 90.125 67.055 90.125 66.375 90.125 C66.375 90.785 66.375 91.445 66.375 92.125 C54.04459672 98.7450116 41.75638692 101.73541045 27.8125 97.875 C23.85267815 96.48013788 20.62973003 94.7801745 17.375 92.125 C17.375 91.465 17.375 90.805 17.375 90.125 C16.715 90.125 16.055 90.125 15.375 90.125 C15.375 89.465 15.375 88.805 15.375 88.125 C14.715 88.125 14.055 88.125 13.375 88.125 C12.715 87.135 12.055 86.145 11.375 85.125 C11.32601563 85.89585937 11.27703125 86.66671875 11.2265625 87.4609375 C11.15179688 88.46382813 11.07703125 89.46671875 11 90.5 C10.93039062 91.49773437 10.86078125 92.49546875 10.7890625 93.5234375 C10.375 96.125 10.375 96.125 8.375 98.125 C6.32788086 98.36791992 6.32788086 98.36791992 3.83984375 98.35546875 C2.94845703 98.35353516 2.05707031 98.35160156 1.13867188 98.34960938 C0.20603516 98.33736328 -0.72660156 98.32511719 -1.6875 98.3125 C-3.09225586 98.3115332 -3.09225586 98.3115332 -4.52539062 98.31054688 C-11.48480776 98.26519224 -11.48480776 98.26519224 -12.625 97.125 C-12.7202822 94.14201786 -12.75052175 91.18223655 -12.73852539 88.19897461 C-12.73867142 87.26248581 -12.73881744 86.32599701 -12.7389679 85.36112976 C-12.73826837 82.24984461 -12.73047415 79.13861851 -12.72265625 76.02734375 C-12.72079221 73.87642957 -12.71936824 71.72551497 -12.71836853 69.57460022 C-12.71454225 63.90118242 -12.70471102 58.22779005 -12.69366455 52.55438232 C-12.6834528 46.76998234 -12.67887142 40.98557827 -12.67382812 35.20117188 C-12.66308885 23.84243672 -12.64601111 12.48372047 -12.625 1.125 C-8.35129357 0.37301286 -4.34405635 -0.01017343 0 0 Z M16.375 51.125 C16.375 51.785 16.375 52.445 16.375 53.125 C15.715 53.125 15.055 53.125 14.375 53.125 C11.09055886 57.98891675 11.09055886 57.98891675 10.3125 63.6875 C11.96246705 69.0256287 14.61354729 72.06078899 19.375 74.9375 C27.10946899 77.99906064 37.8586753 79.04635351 45.625 75.6875 C46.5325 75.171875 47.44 74.65625 48.375 74.125 C49.035 73.795 49.695 73.465 50.375 73.125 C50.375 72.465 50.375 71.805 50.375 71.125 C51.035 71.125 51.695 71.125 52.375 71.125 C54.82413857 66.79492302 55.07666513 63.01129454 54.375 58.125 C51.95850288 53.38104133 51.95850288 53.38104133 47.375 51.125 C47.375 50.465 47.375 49.805 47.375 49.125 C36.77589266 45.11626046 26.50725524 46.49311189 16.375 51.125 Z " fill="#0AC3BC" transform="translate(299.625,245.875)"/>
<path d="M0 0 C1.75 1.8046875 1.75 1.8046875 2.75 3.8046875 C3.08 -0.1553125 3.41 -4.1153125 3.75 -8.1953125 C11.34 -8.1953125 18.93 -8.1953125 26.75 -8.1953125 C26.77255299 0.78389856 26.79091622 9.76309095 26.80181217 18.74232388 C26.80704051 22.91131578 26.81413726 27.08028737 26.82543945 31.24926758 C26.83627008 35.26926436 26.84227721 39.28924155 26.84487724 43.30925179 C26.84673118 44.84631725 26.85035119 46.38338159 26.85573006 47.92043877 C26.86294284 50.06604237 26.86399084 52.21156405 26.86352539 54.35717773 C26.865746 55.58073471 26.86796661 56.80429169 26.87025452 58.06492615 C26.75 60.8046875 26.75 60.8046875 25.75 61.8046875 C22.44561091 62.0823319 19.12717866 62.03643738 15.8125 62.0546875 C14.87986328 62.0753125 13.94722656 62.0959375 12.98632812 62.1171875 C12.09494141 62.12234375 11.20355469 62.1275 10.28515625 62.1328125 C9.464104 62.1421582 8.64305176 62.15150391 7.79711914 62.16113281 C7.12156982 62.04350586 6.44602051 61.92587891 5.75 61.8046875 C3.48045369 58.40036803 3.38450051 56.63944548 3.125 52.6171875 C3.05023438 51.53050781 2.97546875 50.44382812 2.8984375 49.32421875 C2.84945312 48.49277344 2.80046875 47.66132813 2.75 46.8046875 C2.22212891 47.58392578 2.22212891 47.58392578 1.68359375 48.37890625 C-4.10651133 56.55761865 -10.23146033 61.08608163 -20.25 62.8046875 C-33.38139172 63.83765258 -43.90549809 62.22324567 -54.25 53.8046875 C-61.31371259 47.38599098 -64.75976048 38.47005943 -65.453125 29.04296875 C-65.64102198 17.31506538 -62.76305423 8.01967851 -55.25 -1.1953125 C-50.95322581 -4.1953125 -50.95322581 -4.1953125 -48.25 -4.1953125 C-48.25 -4.8553125 -48.25 -5.5153125 -48.25 -6.1953125 C-30.91630231 -13.83208505 -14.20499183 -13.0705654 0 0 Z M-38.75 17.4296875 C-40.78626987 22.0112947 -41.04471757 25.86780562 -40.25 30.8046875 C-38.05055327 35.28504194 -35.74868182 37.66781364 -31.25 39.8046875 C-22.68293272 42.50312499 -12.35831536 41.4849536 -4.25 37.8046875 C-1.00401433 35.84089991 1.23931941 33.67062416 3.1875 30.3671875 C4.06343382 26.3768223 3.79408065 23.57692771 1.69140625 20.0078125 C-2.25970465 14.76951249 -6.88613942 12.21424508 -13.25 10.8046875 C-23.34907593 9.77025206 -31.5408088 9.86003674 -38.75 17.4296875 Z " fill="#07C4BC" transform="translate(251.25,282.1953125)"/>
<path d="M0 0 C2.72209093 1.72769445 4.80744453 3.78904124 6.9140625 6.21484375 C7.9040625 6.87484375 8.8940625 7.53484375 9.9140625 8.21484375 C11.69356677 5.34690246 11.69356677 5.34690246 11.4140625 2.08984375 C11.2490625 1.47109375 11.0840625 0.85234375 10.9140625 0.21484375 C12.9140625 -1.78515625 12.9140625 -1.78515625 14.97705078 -2.01220703 C16.21817627 -1.99649658 16.21817627 -1.99649658 17.484375 -1.98046875 C18.38027344 -1.97402344 19.27617187 -1.96757812 20.19921875 -1.9609375 C21.60494141 -1.93580078 21.60494141 -1.93580078 23.0390625 -1.91015625 C23.98394531 -1.90113281 24.92882812 -1.89210937 25.90234375 -1.8828125 C28.23983542 -1.85920147 30.57682373 -1.82627141 32.9140625 -1.78515625 C35.02541735 1.67462855 35.16706441 4.40416413 35.17285156 8.42041016 C35.17915588 9.67496002 35.18546021 10.92950989 35.19195557 12.22207642 C35.18837644 13.58685446 35.18427464 14.95163122 35.1796875 16.31640625 C35.18103507 17.7183743 35.18297636 19.1203419 35.18548584 20.52230835 C35.18843087 23.45599836 35.18415824 26.38956638 35.17480469 29.32324219 C35.16338932 33.08735632 35.16998652 36.8511859 35.18194962 40.61528969 C35.1891671 43.50800736 35.18688119 46.40065724 35.18169403 49.29337692 C35.18035831 50.68168547 35.18200255 52.07000014 35.18665314 53.45830154 C35.19171855 55.39488867 35.18263229 57.33149735 35.17285156 59.26806641 C35.17126038 60.3707486 35.16966919 61.47343079 35.16802979 62.60952759 C34.9140625 65.21484375 34.9140625 65.21484375 32.9140625 67.21484375 C30.94287109 67.44189453 30.94287109 67.44189453 28.5625 67.41015625 C27.28632813 67.40048828 27.28632813 67.40048828 25.984375 67.390625 C24.65019531 67.36548828 24.65019531 67.36548828 23.2890625 67.33984375 C22.391875 67.33082031 21.4946875 67.32179688 20.5703125 67.3125 C18.35129664 67.28889345 16.13281173 67.25596685 13.9140625 67.21484375 C11.71763393 59.56305804 11.71763393 59.56305804 10.9140625 56.21484375 C10.2540625 56.21484375 9.5940625 56.21484375 8.9140625 56.21484375 C8.2540625 57.10171875 7.5940625 57.98859375 6.9140625 58.90234375 C2.59011457 64.33301644 -4.32537508 67.2316735 -11.0859375 68.21484375 C-23.77320424 69.0203845 -34.12688289 67.54460517 -44.0859375 59.21484375 C-47.0859375 55.68032259 -47.0859375 55.68032259 -47.0859375 53.21484375 C-47.7459375 53.21484375 -48.4059375 53.21484375 -49.0859375 53.21484375 C-54.12526387 43.00120905 -55.19548742 30.17305574 -51.9609375 19.15234375 C-48.19381728 10.19223071 -42.97509085 4.09398539 -34.2734375 -0.16015625 C-32.0859375 -0.78515625 -32.0859375 -0.78515625 -30.0859375 0.21484375 C-30.0859375 -0.44515625 -30.0859375 -1.10515625 -30.0859375 -1.78515625 C-20.846374 -4.34426033 -8.69077349 -4.19606074 0 0 Z M-28.0859375 25.21484375 C-30.54166619 29.19597388 -30.26082647 32.27807506 -29.6875 36.8046875 C-28.77223821 40.47167792 -27.12478873 42.05388288 -24.0859375 44.21484375 C-18.9013496 46.45133265 -14.2448537 46.45458204 -8.7109375 46.33984375 C-7.46376953 46.32630859 -7.46376953 46.32630859 -6.19140625 46.3125 C-4.15612413 46.28910595 -2.12099186 46.253241 -0.0859375 46.21484375 C-0.0859375 45.55484375 -0.0859375 44.89484375 -0.0859375 44.21484375 C0.6153125 44.15296875 1.3165625 44.09109375 2.0390625 44.02734375 C5.91623135 42.93162212 8.05332208 41.01056734 10.9140625 38.21484375 C12.69419171 34.65458534 11.85383904 30.97394992 10.9140625 27.21484375 C8.57326493 24.85837374 8.57326493 24.85837374 5.9140625 23.21484375 C5.2540625 22.55484375 4.5940625 21.89484375 3.9140625 21.21484375 C-6.70676579 16.02349719 -20.08749993 15.88333325 -28.0859375 25.21484375 Z " fill="#1A202A" transform="translate(237.0859375,163.78515625)"/>
<path d="M0 0 C6.75177409 6.26950451 11.92126844 12.48669321 12.46875 21.92578125 C12.50299143 23.72105787 12.51265267 25.51694145 12.5 27.3125 C12.49427979 28.24731201 12.48855957 29.18212402 12.48266602 30.14526367 C12.3013753 37.12648217 11.34096605 42.35894767 7 48 C6.49210937 48.721875 5.98421875 49.44375 5.4609375 50.1875 C-0.73779594 58.17828434 -9.25669987 61.43832185 -19 63 C-22.19457748 63.25417383 -25.35923836 63.2811753 -28.5625 63.25 C-29.36107422 63.25773437 -30.15964844 63.26546875 -30.98242188 63.2734375 C-42.48983539 63.23592352 -52.86345317 59.72856218 -61.28125 51.76171875 C-68.06649995 44.80683755 -69.8232163 36.06504084 -70.1015625 26.515625 C-69.76086629 19.60435902 -68.326616 14.0572133 -65 8 C-64.67 7.34 -64.34 6.68 -64 6 C-63.34 6 -62.68 6 -62 6 C-62 5.34 -62 4.68 -62 4 C-61.34 4 -60.68 4 -60 4 C-60 3.34 -60 2.68 -60 2 C-59.34 2 -58.68 2 -58 2 C-58 1.34 -58 0.68 -58 0 C-49.86503067 -4.78527607 -49.86503067 -4.78527607 -46 -6 C-45.34 -5.67 -44.68 -5.34 -44 -5 C-44 -5.66 -44 -6.32 -44 -7 C-28.85322925 -10.41295952 -12.65847315 -9.94594319 0 0 Z M-44.51953125 18.9375 C-46.4486397 22.53668467 -47.75628305 25.89446346 -47 30 C-44.91652837 35.37316367 -42.2883011 38.29234149 -37.1796875 40.9453125 C-31.1948001 43.55049878 -26.45958637 43.15491408 -20.37890625 41.125 C-16.68031964 39.57900153 -13.81899069 38.32187971 -11.6640625 34.84375 C-10.16904667 30.72902754 -9.41331292 27.1933873 -11 23 C-11.309375 22.01 -11.61875 21.02 -11.9375 20 C-15.36980394 15.0075579 -20.43526846 12.74919781 -26.3046875 11.515625 C-33.02599153 11.08507883 -40.28548623 13.53882049 -44.51953125 18.9375 Z " fill="#181E29" transform="translate(427,169)"/>
<path d="M0 0 C8.25 0 16.5 0 25 0 C25 22.77 25 45.54 25 69 C42.82 69 60.64 69 79 69 C79 77.58 79 86.16 79 95 C77.31767661 96.68232339 75.24576976 96.12575392 73.00016785 96.13552856 C72.2853273 96.13350433 71.57048676 96.1314801 70.83398438 96.12939453 C70.08441971 96.13114685 69.33485504 96.13289917 68.56257629 96.13470459 C66.07294431 96.1391232 63.58338277 96.1361851 61.09375 96.1328125 C59.37121568 96.13348554 57.64868145 96.13445556 55.92614746 96.13571167 C52.31127012 96.13718865 48.69641745 96.13503407 45.08154297 96.13037109 C40.43733507 96.1246738 35.79318496 96.1279528 31.14897919 96.13394356 C27.59063274 96.13754916 24.0323001 96.13641059 20.47395325 96.13381577 C18.76105238 96.13314649 17.04815028 96.13397493 15.33525085 96.13629532 C12.94547178 96.13882183 10.55578759 96.1349813 8.16601562 96.12939453 C7.45117508 96.13141876 6.73633453 96.13344299 5.99983215 96.13552856 C1.11426269 96.11426269 1.11426269 96.11426269 0 95 C-0.09526806 92.04753646 -0.12552452 89.11851579 -0.11352539 86.16577148 C-0.11367142 85.23903625 -0.11381744 84.31230103 -0.1139679 83.35748291 C-0.11326838 80.27866313 -0.10547421 77.19990303 -0.09765625 74.12109375 C-0.09579221 71.99259982 -0.09436824 69.86410547 -0.09336853 67.73561096 C-0.08954228 62.1213768 -0.07971108 56.50716832 -0.06866455 50.89294434 C-0.05845273 45.16886747 -0.0538714 39.44478647 -0.04882812 33.72070312 C-0.0380889 22.48045562 -0.02049124 11.24023396 0 0 Z " fill="#10C6BE" transform="translate(102,248)"/>
<path d="M0 0 C2.875 2.5625 2.875 2.5625 5 5 C5.556875 5.474375 6.11375 5.94875 6.6875 6.4375 C12.09595054 12.8761316 11.15129923 23.94261182 11.1328125 31.8984375 C11.13376923 32.81460846 11.13472595 33.73077942 11.13571167 34.67471313 C11.13638803 36.59580556 11.13457196 38.51690033 11.13037109 40.43798828 C11.12497788 43.38709567 11.13035343 46.33605332 11.13671875 49.28515625 C11.1360586 51.15625034 11.13477874 53.02734433 11.1328125 54.8984375 C11.13483673 55.78171722 11.13686096 56.66499695 11.13894653 57.57504272 C11.11498331 63.77003338 11.11498331 63.77003338 10 66 C6.70840684 66.05790353 3.41694397 66.09356261 0.125 66.125 C-0.81214844 66.14175781 -1.74929688 66.15851563 -2.71484375 66.17578125 C-3.61074219 66.18222656 -4.50664062 66.18867188 -5.4296875 66.1953125 C-6.25710449 66.20578613 -7.08452148 66.21625977 -7.93701172 66.22705078 C-10 66 -10 66 -12 64 C-12.17546482 60.98691049 -12.23127445 58.06689546 -12.1953125 55.0546875 C-12.1924826 54.1696756 -12.18965271 53.2846637 -12.18673706 52.37283325 C-12.1755224 49.54008588 -12.1504157 46.70765216 -12.125 43.875 C-12.11497185 41.95703581 -12.10584572 40.03906667 -12.09765625 38.12109375 C-12.07557889 33.41394124 -12.04104045 28.70702384 -12 24 C-12.66 24 -13.32 24 -14 24 C-14.495 22.02 -14.495 22.02 -15 20 C-25.23967972 18.21918614 -32.27810791 18.20691057 -41.13964844 24.08129883 C-43.95206721 26.46425599 -43.9960569 26.97612348 -44.64941406 30.93237305 C-44.63504002 32.45940528 -44.58871199 33.98636884 -44.515625 35.51171875 C-44.50239197 36.32115433 -44.48915894 37.1305899 -44.4755249 37.96455383 C-44.42884848 40.5404431 -44.34144491 43.11284463 -44.25 45.6875 C-44.17988364 48.27244053 -44.11834844 50.85719371 -44.06732178 53.44258118 C-44.03334711 55.04884681 -43.98704315 56.65490777 -43.92730713 58.26042175 C-43.87578089 60.17307402 -43.92887698 62.08797616 -44 64 C-46.44986932 66.44986932 -47.137078 66.25631311 -50.5 66.265625 C-51.386875 66.26820313 -52.27375 66.27078125 -53.1875 66.2734375 C-54.115625 66.26570313 -55.04375 66.25796875 -56 66.25 C-56.928125 66.25773437 -57.85625 66.26546875 -58.8125 66.2734375 C-60.1428125 66.26957031 -60.1428125 66.26957031 -61.5 66.265625 C-62.3146875 66.26336914 -63.129375 66.26111328 -63.96875 66.25878906 C-66 66 -66 66 -68 64 C-68.25396729 61.30529785 -68.25396729 61.30529785 -68.25878906 57.83789062 C-68.26509338 56.54314819 -68.27139771 55.24840576 -68.27789307 53.91442871 C-68.27431339 52.49503443 -68.27021146 51.07564138 -68.265625 49.65625 C-68.26697169 48.206583 -68.26891226 46.75691643 -68.27142334 45.30725098 C-68.27437442 42.26745305 -68.27007756 39.22777257 -68.26074219 36.18798828 C-68.24934756 32.28705751 -68.25590713 28.38640193 -68.26788712 24.48548126 C-68.27510621 21.49153562 -68.27281758 18.49765547 -68.26763153 15.50370789 C-68.26629517 14.06515979 -68.2679423 12.62660579 -68.27259064 11.18806458 C-68.2776564 9.17941396 -68.26856944 7.17074257 -68.25878906 5.16210938 C-68.25719788 4.01786499 -68.25560669 2.87362061 -68.25396729 1.69470215 C-68 -1 -68 -1 -66 -3 C-64.07641602 -3.25878906 -64.07641602 -3.25878906 -61.75390625 -3.265625 C-60.49803711 -3.26949219 -60.49803711 -3.26949219 -59.21679688 -3.2734375 C-58.34087891 -3.26570312 -57.46496094 -3.25796875 -56.5625 -3.25 C-55.69044922 -3.25773438 -54.81839844 -3.26546875 -53.91992188 -3.2734375 C-53.08138672 -3.27085937 -52.24285156 -3.26828125 -51.37890625 -3.265625 C-50.6113501 -3.26336914 -49.84379395 -3.26111328 -49.05297852 -3.25878906 C-47 -3 -47 -3 -44 -1 C-43.70703125 1.6015625 -43.70703125 1.6015625 -43.8125 4.625 C-43.83957031 5.62789062 -43.86664063 6.63078125 -43.89453125 7.6640625 C-43.92933594 8.43492187 -43.96414063 9.20578125 -44 10 C-43.59910156 9.48050781 -43.19820313 8.96101562 -42.78515625 8.42578125 C-32.67136807 -3.98138294 -14.22990839 -9.58972087 0 0 Z " fill="#1E242E" transform="translate(343,165)"/>
<path d="M0 0 C6.27 0 12.54 0 19 0 C19.03738281 2.75730469 19.07476562 5.51460937 19.11328125 8.35546875 C19.15952457 11.03303857 19.21074799 13.71047015 19.26245117 16.38793945 C19.29565549 18.2452755 19.32370141 20.10271137 19.34643555 21.96020508 C19.38006442 24.63405798 19.43238374 27.30699993 19.48828125 29.98046875 C19.49467117 30.80773972 19.5010611 31.63501068 19.50764465 32.48735046 C19.62793139 37.22994037 20.19503718 40.02120398 23 44 C23.6875 47.3125 23.6875 47.3125 24 50 C23.34 50 22.68 50 22 50 C22 50.99 22 51.98 22 53 C21.34 53 20.68 53 20 53 C20.0721875 53.90363281 20.144375 54.80726563 20.21875 55.73828125 C20.35796875 57.50751953 20.35796875 57.50751953 20.5 59.3125 C20.5928125 60.48425781 20.685625 61.65601563 20.78125 62.86328125 C20.92364989 64.905194 21 66.9531279 21 69 C22.32 69.33 23.64 69.66 25 70 C25 70.66 25 71.32 25 72 C26.32 72.33 27.64 72.66 29 73 C29 73.66 29 74.32 29 75 C30.65 75 32.3 75 34 75 C32.37660195 76.70884005 30.70680947 78.37446717 29 80 C28.34 80 27.68 80 27 80 C27 79.34 27 78.68 27 78 C26.13375 78.309375 26.13375 78.309375 25.25 78.625 C22.46268972 79.08955171 21.41969001 78.33184618 19 77 C19.01160156 77.58007812 19.02320313 78.16015625 19.03515625 78.7578125 C19.04417969 79.53898437 19.05320312 80.32015625 19.0625 81.125 C19.07410156 81.89070313 19.08570313 82.65640625 19.09765625 83.4453125 C19 86 19 86 18 92 C12.06 92 6.12 92 0 92 C0 61.64 0 31.28 0 0 Z " fill="#02C3BB" transform="translate(289,249)"/>
<path d="M0 0 C4.14581887 -0.02886751 8.29161216 -0.04675327 12.4375 -0.0625 C14.21350586 -0.07506836 14.21350586 -0.07506836 16.02539062 -0.08789062 C17.15009766 -0.09111328 18.27480469 -0.09433594 19.43359375 -0.09765625 C20.47572021 -0.10289307 21.51784668 -0.10812988 22.59155273 -0.11352539 C25 0 25 0 26 1 C26.09899523 2.54955559 26.13079524 4.10353673 26.1328125 5.65625 C26.13474609 7.06583984 26.13474609 7.06583984 26.13671875 8.50390625 C26.13285156 9.49261719 26.12898438 10.48132813 26.125 11.5 C26.13080078 12.98306641 26.13080078 12.98306641 26.13671875 14.49609375 C26.13542969 15.43582031 26.13414062 16.37554687 26.1328125 17.34375 C26.13168457 18.21193359 26.13055664 19.08011719 26.12939453 19.97460938 C26 22 26 22 25 23 C21.0279293 23.28011184 17.04327584 23.23179176 13.0625 23.25 C11.37737305 23.2809375 11.37737305 23.2809375 9.65820312 23.3125 C8.58634766 23.31765625 7.51449219 23.3228125 6.41015625 23.328125 C5.42152588 23.3374707 4.43289551 23.34681641 3.41430664 23.35644531 C2.21922485 23.18000488 2.21922485 23.18000488 1 23 C-1.04762755 19.92855867 -1.2500695 19.30149041 -1.23046875 15.83984375 C-1.22853516 15.04642578 -1.22660156 14.25300781 -1.22460938 13.43554688 C-1.21236328 12.61119141 -1.20011719 11.78683594 -1.1875 10.9375 C-1.18685547 10.10927734 -1.18621094 9.28105469 -1.18554688 8.42773438 C-1.14053468 2.28106936 -1.14053468 2.28106936 0 0 Z " fill="#03C4BD" transform="translate(384,321)"/>
<path d="M0 0 C7.59 0 15.18 0 23 0 C23 22.11 23 44.22 23 67 C22.67 67 22.34 67 22 67 C21.505 35.32 21.505 35.32 21 3 C14.4 2.67 7.8 2.34 1 2 C1 31.7 1 61.4 1 92 C25.75 92 50.5 92 76 92 C76 84.74 76 77.48 76 70 C58.51 70 41.02 70 23 70 C23 69.67 23 69.34 23 69 C40.82 69 58.64 69 77 69 C77 76.92 77 84.84 77 93 C51.59 93 26.18 93 0 93 C0 62.31 0 31.62 0 0 Z " fill="#17BAB4" transform="translate(103,249)"/>
<path d="M0 0 C1.65902344 -0.00386719 1.65902344 -0.00386719 3.3515625 -0.0078125 C6.375 0.125 6.375 0.125 10.375 1.125 C10.375 13.665 10.375 26.205 10.375 39.125 C12.025 37.475 13.675 35.825 15.375 34.125 C18.1875 32.8125 18.1875 32.8125 20.375 32.125 C20.375 31.465 20.375 30.805 20.375 30.125 C21.035 30.125 21.695 30.125 22.375 30.125 C20.97872635 35.01195779 18.39979939 37.14664845 14.375 40.125 C12 41.4375 12 41.4375 10.375 42.125 C9.375 41.125 9.375 41.125 9.26147461 37.43139648 C9.26163376 35.78628708 9.26733012 34.14117269 9.27734375 32.49609375 C9.2787587 31.63186295 9.28017365 30.76763214 9.28163147 29.87721252 C9.28724761 27.10560708 9.29980281 24.3340812 9.3125 21.5625 C9.31751292 19.6881522 9.32207619 17.81380315 9.32617188 15.93945312 C9.33637319 11.33457979 9.35594533 6.7298794 9.375 2.125 C2.445 2.125 -4.485 2.125 -11.625 2.125 C-11.625 33.145 -11.625 64.165 -11.625 96.125 C-5.025 96.125 1.575 96.125 8.375 96.125 C8.375 90.845 8.375 85.565 8.375 80.125 C11.015 80.455 13.655 80.785 16.375 81.125 C16.705 82.115 17.035 83.105 17.375 84.125 C16.715 84.125 16.055 84.125 15.375 84.125 C16.695 86.765 18.015 89.405 19.375 92.125 C18.715 92.125 18.055 92.125 17.375 92.125 C17.375 91.465 17.375 90.805 17.375 90.125 C16.715 90.125 16.055 90.125 15.375 90.125 C15.375 89.465 15.375 88.805 15.375 88.125 C14.715 88.125 14.055 88.125 13.375 88.125 C12.715 87.135 12.055 86.145 11.375 85.125 C11.32601563 85.89585937 11.27703125 86.66671875 11.2265625 87.4609375 C11.15179688 88.46382813 11.07703125 89.46671875 11 90.5 C10.93039062 91.49773437 10.86078125 92.49546875 10.7890625 93.5234375 C10.375 96.125 10.375 96.125 8.375 98.125 C6.32788086 98.36791992 6.32788086 98.36791992 3.83984375 98.35546875 C2.94845703 98.35353516 2.05707031 98.35160156 1.13867188 98.34960938 C0.20603516 98.33736328 -0.72660156 98.32511719 -1.6875 98.3125 C-3.09225586 98.3115332 -3.09225586 98.3115332 -4.52539062 98.31054688 C-11.48480776 98.26519224 -11.48480776 98.26519224 -12.625 97.125 C-12.7202822 94.14201786 -12.75052175 91.18223655 -12.73852539 88.19897461 C-12.73867142 87.26248581 -12.73881744 86.32599701 -12.7389679 85.36112976 C-12.73826837 82.24984461 -12.73047415 79.13861851 -12.72265625 76.02734375 C-12.72079221 73.87642957 -12.71936824 71.72551497 -12.71836853 69.57460022 C-12.71454225 63.90118242 -12.70471102 58.22779005 -12.69366455 52.55438232 C-12.6834528 46.76998234 -12.67887142 40.98557827 -12.67382812 35.20117188 C-12.66308885 23.84243672 -12.64601111 12.48372047 -12.625 1.125 C-8.35129357 0.37301286 -4.34405635 -0.01017343 0 0 Z " fill="#55B9B6" transform="translate(299.625,245.875)"/>
<path d="M0 0 C4.14581887 -0.02886751 8.29161216 -0.04675327 12.4375 -0.0625 C14.21350586 -0.07506836 14.21350586 -0.07506836 16.02539062 -0.08789062 C17.15009766 -0.09111328 18.27480469 -0.09433594 19.43359375 -0.09765625 C20.47572021 -0.10289307 21.51784668 -0.10812988 22.59155273 -0.11352539 C25 0 25 0 26 1 C26.09899523 2.54955559 26.13079524 4.10353673 26.1328125 5.65625 C26.13474609 7.06583984 26.13474609 7.06583984 26.13671875 8.50390625 C26.13285156 9.49261719 26.12898438 10.48132813 26.125 11.5 C26.13080078 12.98306641 26.13080078 12.98306641 26.13671875 14.49609375 C26.13542969 15.43582031 26.13414062 16.37554687 26.1328125 17.34375 C26.13168457 18.21193359 26.13055664 19.08011719 26.12939453 19.97460938 C26 22 26 22 25 23 C21.0279293 23.28011184 17.04327584 23.23179176 13.0625 23.25 C11.37737305 23.2809375 11.37737305 23.2809375 9.65820312 23.3125 C8.58634766 23.31765625 7.51449219 23.3228125 6.41015625 23.328125 C5.42152588 23.3374707 4.43289551 23.34681641 3.41430664 23.35644531 C2.21922485 23.18000488 2.21922485 23.18000488 1 23 C-1.04762755 19.92855867 -1.2500695 19.30149041 -1.23046875 15.83984375 C-1.22853516 15.04642578 -1.22660156 14.25300781 -1.22460938 13.43554688 C-1.21236328 12.61119141 -1.20011719 11.78683594 -1.1875 10.9375 C-1.18685547 10.10927734 -1.18621094 9.28105469 -1.18554688 8.42773438 C-1.14053468 2.28106936 -1.14053468 2.28106936 0 0 Z M1 2 C1 7.94 1 13.88 1 20 C8.26 20 15.52 20 23 20 C24.20693821 16.37918537 24.10782079 13.0749281 24.0625 9.3125 C24.041875 6.899375 24.02125 4.48625 24 2 C16.41 2 8.82 2 1 2 Z " fill="#60CEC9" transform="translate(384,321)"/>
<path d="M0 0 C7.59 0 15.18 0 23 0 C23.02255299 8.97921106 23.04091622 17.95840345 23.05181217 26.93763638 C23.05704051 31.10662828 23.06413726 35.27559987 23.07543945 39.44458008 C23.08627008 43.46457686 23.09227721 47.48455405 23.09487724 51.50456429 C23.09673118 53.04162975 23.10035119 54.57869409 23.10573006 56.11575127 C23.11294284 58.26135487 23.11399084 60.40687655 23.11352539 62.55249023 C23.115746 63.77604721 23.11796661 64.99960419 23.12025452 66.26023865 C23 69 23 69 22 70 C18.69561091 70.2776444 15.37717866 70.23174988 12.0625 70.25 C11.12986328 70.270625 10.19722656 70.29125 9.23632812 70.3125 C8.34494141 70.31765625 7.45355469 70.3228125 6.53515625 70.328125 C5.714104 70.3374707 4.89305176 70.34681641 4.04711914 70.35644531 C3.37156982 70.23881836 2.69602051 70.12119141 2 70 C-0.48044315 66.27933528 -0.44381173 63.13459526 -0.625 58.8125 C-0.66367188 58.06291016 -0.70234375 57.31332031 -0.7421875 56.54101562 C-0.83628216 54.69440801 -0.91922319 52.8472381 -1 51 C-0.01 51.33 0.98 51.66 2 52 C2 57.28 2 62.56 2 68 C8.6 68 15.2 68 22 68 C22 45.89 22 23.78 22 1 C15.07 1 8.14 1 1 1 C1 4.96 1 8.92 1 13 C0.67 13 0.34 13 0 13 C0 8.71 0 4.42 0 0 Z " fill="#38B7B2" transform="translate(255,274)"/>
<path d="M0 0 C0.33 0.66 0.66 1.32 1 2 C5.455 1.505 5.455 1.505 10 1 C7.07735566 2.46132217 5.07536854 3.34099246 2 4 C2 4.66 2 5.32 2 6 C1.34 6 0.68 6 0 6 C-1.81579733 9.99475413 -2.84555767 13.59839352 -3 18 C-0.44448093 23.43047802 2.75891393 25.51738028 8 28 C12.00318396 29.04519991 15.81026577 29.13396251 19.9375 29.125 C21.71447266 29.12886719 21.71447266 29.12886719 23.52734375 29.1328125 C26.77535743 29.0085915 29.81203717 28.61325697 33 28 C33 28.66 33 29.32 33 30 C23.94817496 33.47513162 13.45344916 32.60227952 4 31 C3.67 30.34 3.34 29.68 3 29 C2.01 28.67 1.02 28.34 0 28 C0 27.34 0 26.68 0 26 C-1.65 25.67 -3.3 25.34 -5 25 C-5.33 24.01 -5.66 23.02 -6 22 C-5.34 22 -4.68 22 -4 22 C-4.33 21.34 -4.66 20.68 -5 20 C-5.07033769 18.12620395 -5.0843022 16.24998898 -5.0625 14.375 C-5.05347656 13.37210937 -5.04445313 12.36921875 -5.03515625 11.3359375 C-5.02355469 10.56507813 -5.01195312 9.79421875 -5 9 C-4.34 9 -3.68 9 -3 9 C-3 8.01 -3 7.02 -3 6 C-2.34 6 -1.68 6 -1 6 C-1.33 4.35 -1.66 2.7 -2 1 C-1.34 0.67 -0.68 0.34 0 0 Z " fill="#45CCC8" transform="translate(314,293)"/>
<path d="M0 0 C2.64 0.33 5.28 0.66 8 1 C8.33 1.99 8.66 2.98 9 4 C8.34 4 7.68 4 7 4 C8.32 6.64 9.64 9.28 11 12 C10.34 12 9.68 12 9 12 C9 11.34 9 10.68 9 10 C8.34 10 7.68 10 7 10 C7 9.34 7 8.68 7 8 C6.34 8 5.68 8 5 8 C4.34 7.01 3.68 6.02 3 5 C2.95101563 5.77085937 2.90203125 6.54171875 2.8515625 7.3359375 C2.77679688 8.33882813 2.70203125 9.34171875 2.625 10.375 C2.55539062 11.37273437 2.48578125 12.37046875 2.4140625 13.3984375 C2 16 2 16 0 18 C-2.06298828 18.22705078 -2.06298828 18.22705078 -4.5703125 18.1953125 C-5.46621094 18.18886719 -6.36210937 18.18242187 -7.28515625 18.17578125 C-8.22230469 18.15902344 -9.15945313 18.14226562 -10.125 18.125 C-11.06988281 18.11597656 -12.01476562 18.10695313 -12.98828125 18.09765625 C-15.32577292 18.07404522 -17.66276123 18.04111516 -20 18 C-20 17.34 -20 16.68 -20 16 C-13.4 16 -6.8 16 0 16 C0 10.72 0 5.44 0 0 Z " fill="#6CCDC9" transform="translate(308,326)"/>
<path d="M0 0 C5.38306771 8.07460157 5.65091548 17.70734693 4 27 C1.85048017 36.63351873 1.85048017 36.63351873 -2 40 C-2.6875 37.6875 -2.6875 37.6875 -3 35 C-2.54625 34.566875 -2.0925 34.13375 -1.625 33.6875 C2.82902015 29.06217138 1.13717758 18.59209623 1.1015625 12.65625 C0.98263512 8.37486446 0.59496137 4.23909973 0 0 Z " fill="#4BCAC3" transform="translate(374,290)"/>
<path d="M0 0 C0.66 0.99 1.32 1.98 2 3 C0.68 3 -0.64 3 -2 3 C-2.33 3.99 -2.66 4.98 -3 6 C-11.4025362 8.8508605 -20.23875883 8.18105895 -29 8 C-29 7.34 -29 6.68 -29 6 C-31.97 5.505 -31.97 5.505 -35 5 C-34.67 4.01 -34.34 3.02 -34 2 C-32.4221875 2.7425 -32.4221875 2.7425 -30.8125 3.5 C-21.82405011 6.84083978 -11.71440798 5.66745355 -3 2 C-2.01 1.34 -1.02 0.68 0 0 Z " fill="#50C7C3" transform="translate(250,317)"/>
<path d="M0 0 C0.99 0.33 1.98 0.66 3 1 C3 6.28 3 11.56 3 17 C9.93 17 16.86 17 24 17 C23.67 17.66 23.34 18.32 23 19 C19.70849875 19.08685287 16.4172904 19.14033895 13.125 19.1875 C12.18785156 19.21263672 11.25070312 19.23777344 10.28515625 19.26367188 C8.94130859 19.27817383 8.94130859 19.27817383 7.5703125 19.29296875 C6.32918701 19.31653442 6.32918701 19.31653442 5.06298828 19.34057617 C4.38220215 19.22818604 3.70141602 19.1157959 3 19 C0.51955685 15.27933528 0.55618827 12.13459526 0.375 7.8125 C0.33632812 7.06291016 0.29765625 6.31332031 0.2578125 5.54101562 C0.16371784 3.69440801 0.08077681 1.8472381 0 0 Z " fill="#83D1CF" transform="translate(254,325)"/>
<path d="M0 0 C0.33 0 0.66 0 1 0 C1 12.21 1 24.42 1 37 C3.475 34.525 3.475 34.525 6 32 C8.8125 30.6875 8.8125 30.6875 11 30 C11 29.34 11 28.68 11 28 C11.66 28 12.32 28 13 28 C11.60372635 32.88695779 9.02479939 35.02164845 5 38 C2.625 39.3125 2.625 39.3125 1 40 C0 39 0 39 -0.11352539 35.30639648 C-0.11336624 33.66128708 -0.10766988 32.01617269 -0.09765625 30.37109375 C-0.0962413 29.50686295 -0.09482635 28.64263214 -0.09336853 27.75221252 C-0.08775239 24.98060708 -0.07519719 22.2090812 -0.0625 19.4375 C-0.05748708 17.5631522 -0.05292381 15.68880315 -0.04882812 13.81445312 C-0.03777772 9.20960456 -0.0205023 4.60481579 0 0 Z " fill="#36B6AC" transform="translate(309,248)"/>
<path d="M0 0 C6.6 0.33 13.2 0.66 20 1 C20 1.66 20 2.32 20 3 C22.97 3.66 25.94 4.32 29 5 C29.33 6.32 29.66 7.64 30 9 C29.36578125 8.6390625 28.7315625 8.278125 28.078125 7.90625 C18.1621276 2.97564356 8.84821586 3.51761886 -2 4 C-1.34 2.68 -0.68 1.36 0 0 Z " fill="#25B7B2" transform="translate(220,290)"/>
<path d="M0 0 C1.39895508 -0.01836914 1.39895508 -0.01836914 2.82617188 -0.03710938 C4.16325195 -0.04000977 4.16325195 -0.04000977 5.52734375 -0.04296875 C6.348396 -0.04707764 7.16944824 -0.05118652 8.01538086 -0.05541992 C10.0625 0.1875 10.0625 0.1875 12.0625 2.1875 C8.32272071 4.05738964 3.4152923 3.13084311 -0.72851562 2.97265625 C-5.01345013 2.69334089 -5.01345013 2.69334089 -8.55883789 4.70361328 C-9.01379639 5.1932959 -9.46875488 5.68297852 -9.9375 6.1875 C-10.5975 6.1875 -11.2575 6.1875 -11.9375 6.1875 C-10.54248603 -1.58472067 -7.18323895 0.00494373 0 0 Z " fill="#7C7F82" transform="translate(164.9375,139.8125)"/>
<path d="M0 0 C0.53625 0.2475 1.0725 0.495 1.625 0.75 C0.4184375 1.3996875 0.4184375 1.3996875 -0.8125 2.0625 C-3.65346354 3.55474002 -3.65346354 3.55474002 -4.375 6.75 C-3.715 6.75 -3.055 6.75 -2.375 6.75 C-2.375 7.74 -2.375 8.73 -2.375 9.75 C-2.931875 9.523125 -3.48875 9.29625 -4.0625 9.0625 C-7.30909652 8.62377074 -8.68237943 9.99979663 -11.375 11.75 C-13.6875 12.4375 -13.6875 12.4375 -15.375 12.75 C-15.045 11.76 -14.715 10.77 -14.375 9.75 C-13.715 9.75 -13.055 9.75 -12.375 9.75 C-12.375 9.09 -12.375 8.43 -12.375 7.75 C-11.715 7.75 -11.055 7.75 -10.375 7.75 C-10.375 7.09 -10.375 6.43 -10.375 5.75 C-9.715 5.75 -9.055 5.75 -8.375 5.75 C-8.375 5.09 -8.375 4.43 -8.375 3.75 C-3.23290173 -0.34030544 -3.23290173 -0.34030544 0 0 Z " fill="#2B2F37" transform="translate(377.375,165.25)"/>
<path d="M0 0 C0.33 0 0.66 0 1 0 C1.33 1.98 1.66 3.96 2 6 C2.33 6 2.66 6 3 6 C3 11.94 3 17.88 3 24 C2.34 24 1.68 24 1 24 C0.67 24.99 0.34 25.98 0 27 C0 18.09 0 9.18 0 0 Z " fill="#0F1217" transform="translate(331,202)"/>
<path d="M0 0 C2.31 0.33 4.62 0.66 7 1 C7.33 1.99 7.66 2.98 8 4 C7.34 4 6.68 4 6 4 C7.32 6.64 8.64 9.28 10 12 C9.34 12 8.68 12 8 12 C8 11.34 8 10.68 8 10 C7.34 10 6.68 10 6 10 C6 9.34 6 8.68 6 8 C5.34 8 4.68 8 4 8 C3.34 7.01 2.68 6.02 2 5 C1.67 8.3 1.34 11.6 1 15 C0.67 15 0.34 15 0 15 C0 10.05 0 5.1 0 0 Z " fill="#56D6D2" transform="translate(309,326)"/>
<path d="M0 0 C0.33 0.99 0.66 1.98 1 3 C-3.1196377 4.29243536 -6.66831683 5.26252625 -11 5 C-11.33 4.01 -11.66 3.02 -12 2 C-4.71428571 -1.57142857 -4.71428571 -1.57142857 0 0 Z " fill="#33363E" transform="translate(324,162)"/>
<path d="M0 0 C0.66 0.33 1.32 0.66 2 1 C2 1.66 2 2.32 2 3 C0.68 3 -0.64 3 -2 3 C-2 3.66 -2 4.32 -2 5 C-2.66 5 -3.32 5 -4 5 C-4 5.66 -4 6.32 -4 7 C-6.87771795 8.91847864 -9.88626628 10.50079488 -13 12 C-13 12.66 -13 13.32 -13 14 C-13.66 13.67 -14.32 13.34 -15 13 C-12.47896291 8.79827151 -10.47330841 6.11893556 -6 4 C-5.34 4 -4.68 4 -4 4 C-4 3.34 -4 2.68 -4 2 C-2.125 0.9375 -2.125 0.9375 0 0 Z " fill="#55CCC8" transform="translate(207,274)"/>
<path d="M0 0 C0.99 0.33 1.98 0.66 3 1 C3.02691685 3.45840605 3.04679802 5.91651882 3.0625 8.375 C3.07087891 9.07367188 3.07925781 9.77234375 3.08789062 10.4921875 C3.11328125 15.7734375 3.11328125 15.7734375 2 18 C1.34 18 0.68 18 0 18 C0 12.06 0 6.12 0 0 Z " fill="#7A7C80" transform="translate(296,163)"/>
<path d="M0 0 C4.60853797 0.72008406 8.67237409 2.31295939 13 4 C13 4.66 13 5.32 13 6 C14.65 6.33 16.3 6.66 18 7 C18 7.33 18 7.66 18 8 C11.61736662 7.5837413 6.44195901 5.34649204 1 2 C0.67 1.34 0.34 0.68 0 0 Z " fill="#51C9C4" transform="translate(198,336)"/>
<path d="M0 0 C2.4375 0.75 2.4375 0.75 5 2 C6.44999412 5.59046164 6.09780093 9.43749921 6.0625 13.25 C6.05347656 14.51328125 6.04445313 15.7765625 6.03515625 17.078125 C6.02355469 18.04234375 6.01195312 19.0065625 6 20 C4.35 20.66 2.7 21.32 1 22 C1 21.34 1 20.68 1 20 C1.66 20 2.32 20 3 20 C4.38161412 15.02394263 5.14423824 9.73817711 3.10546875 4.859375 C2.14699849 3.19305922 1.0818584 1.58897952 0 0 Z " fill="#57CEC7" transform="translate(349,297)"/>
<path d="M0 0 C0.66 0 1.32 0 2 0 C0.60372635 4.88695779 -1.97520061 7.02164845 -6 10 C-8.375 11.3125 -8.375 11.3125 -10 12 C-10 9 -10 9 -7.8125 6.4375 C-5.18722294 4.16225988 -3.27556481 3.02946323 0 2 C0 1.34 0 0.68 0 0 Z " fill="#53D3CF" transform="translate(320,276)"/>
<path d="M0 0 C0.99 0 1.98 0 3 0 C2.67 1.32 2.34 2.64 2 4 C4.31 4 6.62 4 9 4 C4.84541088 6.23708645 0.76123067 8 -4 8 C-3.67 6.02 -3.34 4.04 -3 2 C-2.01 2.33 -1.02 2.66 0 3 C0 2.01 0 1.02 0 0 Z " fill="#363C43" transform="translate(215,177)"/>
<path d="M0 0 C-4.44404597 3.62107449 -8.21434368 5.33060893 -14 5 C-9.86853611 0.67179973 -5.99682233 -1.99894078 0 0 Z " fill="#64D1CF" transform="translate(245,339)"/>
<path d="M0 0 C0.66 0 1.32 0 2 0 C2.625 1.875 2.625 1.875 3 4 C2.34 4.66 1.68 5.32 1 6 C0.24785002 7.5207704 -0.45667412 9.06557295 -1.125 10.625 C-1.65480469 11.85089844 -1.65480469 11.85089844 -2.1953125 13.1015625 C-2.46085938 13.72804687 -2.72640625 14.35453125 -3 15 C-4.15782198 11.61915982 -3.83835147 9.70336781 -2.625 6.375 C-2.34914062 5.59898437 -2.07328125 4.82296875 -1.7890625 4.0234375 C-1 2 -1 2 0 0 Z " fill="#2F323D" transform="translate(188,177)"/>
<path d="M0 0 C0.66 0.99 1.32 1.98 2 3 C1.67 3.33 1.34 3.66 1 4 C0.63239269 6.32817964 0.29758419 8.6618385 0 11 C-0.66 11 -1.32 11 -2 11 C-2 14.63 -2 18.26 -2 22 C-2.33 22 -2.66 22 -3 22 C-3.36801906 14.06714481 -2.77476512 7.4654395 0 0 Z " fill="#64D0CE" transform="translate(189,292)"/>
<path d="M0 0 C5.27315333 0.4452885 10.01770224 1.08373163 15 3 C15 3.33 15 3.66 15 4 C10.05 3.67 5.1 3.34 0 3 C0 2.01 0 1.02 0 0 Z " fill="#32BFB9" transform="translate(318,321)"/>
<path d="M0 0 C4.455 0.99 4.455 0.99 9 2 C5 3 5 3 3 3 C1.36323743 4.9600281 1.36323743 4.9600281 0 7 C-0.66 6.67 -1.32 6.34 -2 6 C-1.34 4.02 -0.68 2.04 0 0 Z " fill="#3B3F53" transform="translate(387,209)"/>
<path d="M0 0 C0.66 0.33 1.32 0.66 2 1 C1.01 1.33 0.02 1.66 -1 2 C-1.33 3.65 -1.66 5.3 -2 7 C-5.26954202 6.43628586 -6.82575883 5.50037734 -9 3 C-8.443125 2.87625 -7.88625 2.7525 -7.3125 2.625 C-4.90746492 2.03308138 -4.90746492 2.03308138 -2.375 0.875 C-1.59125 0.58625 -0.8075 0.2975 0 0 Z " fill="#374451" transform="translate(242,206)"/>
<path d="M0 0 C0.99 0.33 1.98 0.66 3 1 C2.34 2.32 1.68 3.64 1 5 C0.34 5 -0.32 5 -1 5 C-1 5.66 -1 6.32 -1 7 C-1.66 7 -2.32 7 -3 7 C-3 7.66 -3 8.32 -3 9 C-3.66 8.67 -4.32 8.34 -5 8 C-4.67 6.68 -4.34 5.36 -4 4 C-3.34 4 -2.68 4 -2 4 C-2 3.01 -2 2.02 -2 1 C-1.34 0.67 -0.68 0.34 0 0 Z " fill="#4BCCC5" transform="translate(369,329)"/>
<path d="M0 0 C0.33 0 0.66 0 1 0 C1 7.26 1 14.52 1 22 C0.01 22 -0.98 22 -2 22 C-1.505 20.515 -1.505 20.515 -1 19 C-0.85426942 17.52034074 -0.75336732 16.03596157 -0.68359375 14.55078125 C-0.64169922 13.70322266 -0.59980469 12.85566406 -0.55664062 11.98242188 C-0.49766602 10.66081055 -0.49766602 10.66081055 -0.4375 9.3125 C-0.39431641 8.41982422 -0.35113281 7.52714844 -0.30664062 6.60742188 C-0.20064647 4.40509892 -0.09857949 2.20266527 0 0 Z " fill="#36363F" transform="translate(153,173)"/>
<path d="M0 0 C0.99 0.33 1.98 0.66 3 1 C3.09038099 6.15171623 2.84681133 10.91913204 2 16 C1.67 16 1.34 16 1 16 C0.67 10.72 0.34 5.44 0 0 Z " fill="#5BD2CD" transform="translate(254,325)"/>
<path d="M0 0 C0.66 0.99 1.32 1.98 2 3 C0.68 3 -0.64 3 -2 3 C-2.33 3.99 -2.66 4.98 -3 6 C-6.3 6 -9.6 6 -13 6 C-13 5.67 -13 5.34 -13 5 C-12.31292969 4.80664062 -11.62585938 4.61328125 -10.91796875 4.4140625 C-10.01691406 4.15367187 -9.11585938 3.89328125 -8.1875 3.625 C-7.29417969 3.36976563 -6.40085938 3.11453125 -5.48046875 2.8515625 C-2.79532104 2.04733339 -2.79532104 2.04733339 0 0 Z " fill="#57D1CC" transform="translate(250,317)"/>
<path d="M0 0 C8.71428571 1.85714286 8.71428571 1.85714286 11 5 C9.02 5.99 9.02 5.99 7 7 C6.5875 6.54625 6.175 6.0925 5.75 5.625 C3.93591905 3.94049626 2.24714373 3.00734029 0 2 C0 1.34 0 0.68 0 0 Z " fill="#40CCC5" transform="translate(351,273)"/>
<path d="M0 0 C2.475 0.495 2.475 0.495 5 1 C5 1.66 5 2.32 5 3 C5.66 3 6.32 3 7 3 C6.67 4.65 6.34 6.3 6 8 C1.2 4.55384615 1.2 4.55384615 0.1875 1.75 C0.125625 1.1725 0.06375 0.595 0 0 Z " fill="#38474D" transform="translate(190,217)"/>
<path d="M0 0 C2.475 0.99 2.475 0.99 5 2 C4.67 2.66 4.34 3.32 4 4 C3.34 3.67 2.68 3.34 2 3 C2.04125 3.94875 2.0825 4.8975 2.125 5.875 C2 9 2 9 0 11 C0 7.37 0 3.74 0 0 Z " fill="#11BDB5" transform="translate(187,303)"/>
<path d="M0 0 C-2 2 -2 2 -5.625 2.125 C-6.73875 2.08375 -7.8525 2.0425 -9 2 C-9.66 3.32 -10.32 4.64 -11 6 C-12.32 5.01 -13.64 4.02 -15 3 C-14.34 2.67 -13.68 2.34 -13 2 C-12.34 2.33 -11.68 2.66 -11 3 C-11 2.34 -11 1.68 -11 1 C-7.32589215 -0.17571451 -3.83070817 -0.07366746 0 0 Z " fill="#4D5156" transform="translate(218,161)"/>
<path d="M0 0 C3.93673644 1.31224548 6.22719294 2.91910327 9 6 C7.02 6.33 5.04 6.66 3 7 C2.01 4.69 1.02 2.38 0 0 Z " fill="#48CDC6" transform="translate(239,274)"/>
<path d="M0 0 C0.33 0.99 0.66 1.98 1 3 C1.66 2.34 2.32 1.68 3 1 C3.99 1 4.98 1 6 1 C6.66 1.99 7.32 2.98 8 4 C4.67212881 5.1092904 3.3006216 5.01557588 0 4 C-0.66 3.01 -1.32 2.02 -2 1 C-1.34 0.67 -0.68 0.34 0 0 Z " fill="#2A2E36" transform="translate(152,225)"/>
<path d="M0 0 C0.99 0 1.98 0 3 0 C3 0.66 3 1.32 3 2 C3.99 2.33 4.98 2.66 6 3 C6 3.33 6 3.66 6 4 C3.625 4.1875 3.625 4.1875 1 4 C0.34 3.01 -0.32 2.02 -1 1 C-0.67 0.67 -0.34 0.34 0 0 Z M0 4 C0.66 4.99 1.32 5.98 2 7 C1.01 7 0.02 7 -1 7 C-0.67 6.01 -0.34 5.02 0 4 Z " fill="#2F333A" transform="translate(122,168)"/>
<path d="M0 0 C0.33 1.32 0.66 2.64 1 4 C-2.28976808 5.09658936 -3.71303767 4.79953138 -7 4 C-6.67 3.01 -6.34 2.02 -6 1 C-3.90006779 0.25486277 -2.22568901 0 0 0 Z " fill="#2C3038" transform="translate(96,225)"/>
<path d="M0 0 C0.33 0 0.66 0 1 0 C1.66 3.96 2.32 7.92 3 12 C2.01 11.67 1.02 11.34 0 11 C-0.19491452 9.54263913 -0.38069358 8.08405407 -0.5625 6.625 C-0.66691406 5.81289063 -0.77132812 5.00078125 -0.87890625 4.1640625 C-1 2 -1 2 0 0 Z " fill="#65D2CE" transform="translate(210,305)"/>
<path d="M0 0 C1.43836751 0.11458693 2.87570966 0.24209116 4.3125 0.375 C5.51326172 0.47941406 5.51326172 0.47941406 6.73828125 0.5859375 C9 1 9 1 12 3 C11.67 3.99 11.34 4.98 11 6 C10.29875 5.54625 9.5975 5.0925 8.875 4.625 C5.97015409 2.98313057 3.1860652 1.96322901 0 1 C0 0.67 0 0.34 0 0 Z " fill="#57CBC6" transform="translate(238,293)"/>
<path d="M0 0 C2 0.0625 2 0.0625 4 1 C5.25 3.5625 5.25 3.5625 6 6 C3.64828869 5.40138258 1.3140622 4.73075648 -1 4 C-1.33 3.34 -1.66 2.68 -2 2 C-1.34 1.34 -0.68 0.68 0 0 Z " fill="#40454D" transform="translate(406,179)"/>
<path d="M0 0 C1.32 0.66 2.64 1.32 4 2 C-1.14285714 6.42857143 -1.14285714 6.42857143 -5 7 C-4.67 6.01 -4.34 5.02 -4 4 C-3.34 4 -2.68 4 -2 4 C-2 3.34 -2 2.68 -2 2 C-1.34 2 -0.68 2 0 2 C0 1.34 0 0.68 0 0 Z " fill="#444A51" transform="translate(367,171)"/>
<path d="M0 0 C0.66 0.33 1.32 0.66 2 1 C0.68 3.31 -0.64 5.62 -2 8 C-2.66 8 -3.32 8 -4 8 C-3.67 6.02 -3.34 4.04 -3 2 C-2.01 2 -1.02 2 0 2 C0 1.34 0 0.68 0 0 Z " fill="#25C3BD" transform="translate(194,286)"/>
<path d="M0 0 C0.33 0 0.66 0 1 0 C1.0810206 2.10353495 1.13919907 4.20795952 1.1875 6.3125 C1.22230469 7.48425781 1.25710938 8.65601563 1.29296875 9.86328125 C1 13 1 13 -0.51171875 14.91796875 C-1.00285156 15.27503906 -1.49398437 15.63210938 -2 16 C-2.33 15.01 -2.66 14.02 -3 13 C-2.34 12.67 -1.68 12.34 -1 12 C-0.53101037 9.1840151 -0.53101037 9.1840151 -0.375 5.9375 C-0.30023438 4.83277344 -0.22546875 3.72804688 -0.1484375 2.58984375 C-0.09945312 1.73519531 -0.05046875 0.88054687 0 0 Z " fill="#15BCB6" transform="translate(256,275)"/>
<path d="M0 0 C1.98 0.495 1.98 0.495 4 1 C4 1.66 4 2.32 4 3 C5.32 3.66 6.64 4.32 8 5 C7.34 5.66 6.68 6.32 6 7 C6 6.34 6 5.68 6 5 C5.01 5 4.02 5 3 5 C3 4.34 3 3.68 3 3 C1.68 2.67 0.36 2.34 -1 2 C-0.67 1.34 -0.34 0.68 0 0 Z " fill="#4ACCC5" transform="translate(362,278)"/>
<path d="M0 0 C0.6875 1.625 0.6875 1.625 1 4 C-0.4375 7.25 -0.4375 7.25 -2 10 C-2.33 9.34 -2.66 8.68 -3 8 C-3.66 7.67 -4.32 7.34 -5 7 C-4.34 6.01 -3.68 5.02 -3 4 C-2.34 4.33 -1.68 4.66 -1 5 C-0.67 3.35 -0.34 1.7 0 0 Z " fill="#52555E" transform="translate(438,203)"/>
<path d="M0 0 C2.0625 0.4375 2.0625 0.4375 4 1 C2.71937515 2.7074998 1.38232443 4.37373596 0 6 C-0.66 6 -1.32 6 -2 6 C-1.125 1.125 -1.125 1.125 0 0 Z " fill="#55575F" transform="translate(155,140)"/>
<path d="M0 0 C0.99 0.33 1.98 0.66 3 1 C3 2.32 3 3.64 3 5 C1.68 5.33 0.36 5.66 -1 6 C-1 5.01 -1 4.02 -1 3 C-1.66 2.67 -2.32 2.34 -3 2 C-2.01 1.34 -1.02 0.68 0 0 Z " fill="#2B313A" transform="translate(332,186)"/>
<path d="M0 0 C0.66 0 1.32 0 2 0 C2.33 1.98 2.66 3.96 3 6 C1.0625 5.625 1.0625 5.625 -1 5 C-1.33 4.34 -1.66 3.68 -2 3 C-1.34 3 -0.68 3 0 3 C0 2.01 0 1.02 0 0 Z M-3 5 C-1 6 -1 6 -1 6 Z " fill="#343742" transform="translate(206,199)"/>
<path d="M0 0 C1.32 0.66 2.64 1.32 4 2 C4 3.32 4 4.64 4 6 C2.68 6 1.36 6 0 6 C-1.125 2.25 -1.125 2.25 0 0 Z " fill="#101620" transform="translate(253,224)"/>
<path d="M0 0 C-2 2 -2 2 -5.625 2.125 C-6.73875 2.08375 -7.8525 2.0425 -9 2 C-8.67 1.34 -8.34 0.68 -8 0 C-4.71585695 -0.95067299 -3.30306592 -1.10102197 0 0 Z " fill="#41C7C1" transform="translate(245,339)"/>
<path d="M0 0 C2.31 0.33 4.62 0.66 7 1 C7.33 1.99 7.66 2.98 8 4 C4.31245243 3.50168276 2.39509338 2.89932357 0 0 Z " fill="#1CB9B0" transform="translate(232,273)"/>
<path d="M0 0 C1.32 0.66 2.64 1.32 4 2 C3.34 3.32 2.68 4.64 2 6 C1.01 5.01 0.02 4.02 -1 3 C-0.67 2.01 -0.34 1.02 0 0 Z " fill="#0D121C" transform="translate(210,226)"/>
<path d="M0 0 C0.99 1.32 1.98 2.64 3 4 C2.67 4.66 2.34 5.32 2 6 C-0.475 5.01 -0.475 5.01 -3 4 C-2.67 3.34 -2.34 2.68 -2 2 C-1.34 2 -0.68 2 0 2 C0 1.34 0 0.68 0 0 Z " fill="#121620" transform="translate(407,209)"/>
<path d="M0 0 C2 1.375 2 1.375 4 3 C4 3.66 4 4.32 4 5 C2.35 4.67 0.7 4.34 -1 4 C-0.67 2.68 -0.34 1.36 0 0 Z " fill="#393B46" transform="translate(144,187)"/>
<path d="" fill="#FFFFFF" transform="translate(0,0)"/>
<path d="" fill="#FFFFFF" transform="translate(0,0)"/>
<path d="" fill="#FFFFFF" transform="translate(0,0)"/>
<path d="" fill="#FFFFFF" transform="translate(0,0)"/>
<path d="" fill="#FFFFFF" transform="translate(0,0)"/>
<path d="" fill="#FFFFFF" transform="translate(0,0)"/>
<path d="" fill="#FFFFFF" transform="translate(0,0)"/>
<path d="" fill="#FFFFFF" transform="translate(0,0)"/>
<path d="" fill="#FFFFFF" transform="translate(0,0)"/>
<path d="" fill="#FFFFFF" transform="translate(0,0)"/>
<path d="" fill="#FFFFFF" transform="translate(0,0)"/>
<path d="" fill="#FFFFFF" transform="translate(0,0)"/>
<path d="" fill="#FFFFFF" transform="translate(0,0)"/>
<path d="" fill="#FFFFFF" transform="translate(0,0)"/>
<path d="" fill="#FFFFFF" transform="translate(0,0)"/>
<path d="" fill="#FFFFFF" transform="translate(0,0)"/>
<path d="" fill="#FFFFFF" transform="translate(0,0)"/>
<path d="" fill="#FFFFFF" transform="translate(0,0)"/>
<path d="" fill="#FFFFFF" transform="translate(0,0)"/>
<path d="" fill="#FFFFFF" transform="translate(0,0)"/>
<path d="" fill="#FFFFFF" transform="translate(0,0)"/>
<path d="" fill="#FFFFFF" transform="translate(0,0)"/>
<path d="" fill="#FFFFFF" transform="translate(0,0)"/>
<path d="" fill="#FFFFFF" transform="translate(0,0)"/>
<path d="" fill="#FFFFFF" transform="translate(0,0)"/>
<path d="" fill="#FFFFFF" transform="translate(0,0)"/>
<path d="" fill="#FFFFFF" transform="translate(0,0)"/>
<path d="" fill="#FFFFFF" transform="translate(0,0)"/>
<path d="" fill="#FFFFFF" transform="translate(0,0)"/>
<path d="" fill="#FFFFFF" transform="translate(0,0)"/>
<path d="" fill="#FFFFFF" transform="translate(0,0)"/>
<path d="" fill="#FFFFFF" transform="translate(0,0)"/>
<path d="" fill="#FFFFFF" transform="translate(0,0)"/>
<path d="" fill="#FFFFFF" transform="translate(0,0)"/>
<path d="" fill="#FFFFFF" transform="translate(0,0)"/>
<path d="" fill="#FFFFFF" transform="translate(0,0)"/>
<path d="" fill="#FFFFFF" transform="translate(0,0)"/>
<path d="" fill="#FFFFFF" transform="translate(0,0)"/>
<path d="" fill="#FFFFFF" transform="translate(0,0)"/>
<path d="" fill="#FFFFFF" transform="translate(0,0)"/>
<path d="" fill="#FFFFFF" transform="translate(0,0)"/>
<path d="" fill="#FFFFFF" transform="translate(0,0)"/>
<path d="" fill="#FFFFFF" transform="translate(0,0)"/>
<path d="" fill="#FFFFFF" transform="translate(0,0)"/>
<path d="" fill="#FFFFFF" transform="translate(0,0)"/>
<path d="" fill="#FFFFFF" transform="translate(0,0)"/>
<path d="" fill="#FFFFFF" transform="translate(0,0)"/>
<path d="" fill="#FFFFFF" transform="translate(0,0)"/>
<path d="" fill="#FFFFFF" transform="translate(0,0)"/>
<path d="" fill="#FFFFFF" transform="translate(0,0)"/>
<path d="" fill="#FFFFFF" transform="translate(0,0)"/>
<path d="" fill="#FFFFFF" transform="translate(0,0)"/>
<path d="" fill="#FFFFFF" transform="translate(0,0)"/>
<path d="" fill="#FFFFFF" transform="translate(0,0)"/>
<path d="" fill="#FFFFFF" transform="translate(0,0)"/>
<path d="" fill="#FFFFFF" transform="translate(0,0)"/>
<path d="" fill="#FFFFFF" transform="translate(0,0)"/>
<path d="" fill="#FFFFFF" transform="translate(0,0)"/>
<path d="" fill="#FFFFFF" transform="translate(0,0)"/>
<path d="" fill="#FFFFFF" transform="translate(0,0)"/>
<path d="" fill="#FFFFFF" transform="translate(0,0)"/>
<path d="" fill="#FFFFFF" transform="translate(0,0)"/>
<path d="" fill="#FFFFFF" transform="translate(0,0)"/>
<path d="" fill="#FFFFFF" transform="translate(0,0)"/>
<path d="" fill="#FFFFFF" transform="translate(0,0)"/>
<path d="" fill="#FFFFFF" transform="translate(0,0)"/>
<path d="" fill="#FFFFFF" transform="translate(0,0)"/>
<path d="" fill="#FFFFFF" transform="translate(0,0)"/>
<path d="" fill="#FFFFFF" transform="translate(0,0)"/>
<path d="" fill="#FFFFFF" transform="translate(0,0)"/>
<path d="" fill="#FFFFFF" transform="translate(0,0)"/>
<path d="" fill="#FFFFFF" transform="translate(0,0)"/>
<path d="" fill="#FFFFFF" transform="translate(0,0)"/>
<path d="" fill="#FFFFFF" transform="translate(0,0)"/>
<path d="" fill="#FFFFFF" transform="translate(0,0)"/>
<path d="" fill="#FFFFFF" transform="translate(0,0)"/>
<path d="" fill="#FFFFFF" transform="translate(0,0)"/>
<path d="" fill="#FFFFFF" transform="translate(0,0)"/>
</svg>
